<svg width="136" height="136" xmlns="http://www.w3.org/2000/svg">

 <g>
  <title>background</title>
  <rect fill="none" id="canvas_background" height="138" width="138" y="-1" x="-1"/>
 </g>
 <g>
  <title>Layer 1</title>
  <g stroke="null" id="layer1">
   <g stroke="null" id="text2993">
    <path stroke="#435472" stroke-width="0.5" fill="#435472" id="path3082" d="m74.645621,135.910447c-0.356643,0 -0.624082,-0.089161 -0.802318,-0.267439c-1.604636,-0.356557 -2.406954,-1.337154 -2.406868,-2.941704l0,-129.436059c-0.000085,-2.139301 1.069629,-3.209016 3.209186,-3.209144c0.891351,0.000128 1.604465,0.356728 2.139429,1.069715c0.713072,0.713285 1.069629,1.426442 1.069715,2.139429l0,116.866839l20.057223,-36.103026c0.178193,-0.713072 0.80219,-1.247951 1.872032,-1.604551c0.891308,-0.178236 1.782744,0.000043 2.674265,0.534836l20.324662,13.371496c4.63533,-9.44911 6.86392,-18.898305 6.685769,-28.347543c-0.000128,-11.231982 -2.852714,-21.661731 -8.557759,-31.28929c-5.527022,-9.805667 -13.193303,-17.38283 -22.99897,-22.73153c-1.782957,-0.891308 -2.228675,-2.317623 -1.337154,-4.278901c0.713072,-1.604423 2.139344,-2.050141 4.278901,-1.337154c10.875339,6.061901 19.433098,14.441338 25.673235,25.138399c6.239924,10.519037 9.359907,22.018501 9.360077,34.498476c0.356429,11.945224 -2.674436,23.44473 -9.092638,34.498433c-0.178407,0.7132 -0.891564,1.248036 -2.139429,1.604593c-0.713285,0.178321 -1.51556,0.000043 -2.406868,-0.534879l-20.324662,-13.371496l-24.336124,44.12595c-1.0698,1.069715 -2.050354,1.604551 -2.941747,1.604551"/>
    <path stroke="#435472" stroke-width="0.5" fill="#435472" d="m61.274125,135.910447c-0.891521,0 -1.693796,-0.356557 -2.406868,-1.069715c-0.534921,-0.713157 -0.802361,-1.426272 -0.802318,-2.139429l0,-116.33196l-18.720069,35.300709c-0.178321,0.713242 -0.891479,1.248121 -2.139429,1.604593c-0.7132,0.178364 -1.515475,0.000085 -2.406868,-0.534879l-20.859541,-14.441211c-5.170337,8.914444 -7.755484,18.809315 -7.755484,29.684739c0.178279,11.23211 2.941747,21.572698 8.29032,31.02185c5.348615,9.270916 12.836617,16.6698 22.464134,22.196694c1.961108,1.247993 2.317665,2.674308 1.069715,4.278858c-0.891479,1.782872 -2.31775,2.22859 -4.278901,1.337154c-10.51891,-6.240009 -18.809229,-14.530329 -24.87096,-24.87096c-5.883451,-10.340588 -8.825198,-21.661773 -8.825156,-33.963597c-0.000043,-13.193132 3.387422,-25.227474 10.16231,-36.103026c0.534836,-0.891351 1.247993,-1.337069 2.139429,-1.337154c0.891436,-0.356472 1.693711,-0.178193 2.406868,0.534836l20.859541,14.441211l22.99897,-43.591028c0.891351,-1.426187 2.139387,-1.961023 3.744022,-1.604593c1.604508,0.356728 2.406783,1.337282 2.406868,2.941747l0,129.436017c-0.356643,2.139429 -1.515518,3.209144 -3.476583,3.209144" id="path3865"/>
   </g>
  </g>
 </g>
</svg>