<?xml version="1.0" encoding="UTF-8" standalone="no"?>
<!DOCTYPE svg PUBLIC "-//W3C//DTD SVG 1.1//EN" "http://www.w3.org/Graphics/SVG/1.1/DTD/svg11.dtd">
<svg version="1.1" xmlns="http://www.w3.org/2000/svg" xmlns:xlink="http://www.w3.org/1999/xlink" preserveAspectRatio="xMidYMid meet" viewBox="0 0 34 34" width="34" height="34"><defs><path d="M34 17C34 26.39 26.39 34 17 34C7.61 34 0 26.39 0 17C0 7.61 7.61 0 17 0C26.39 0 34 7.61 34 17Z" id="a7Jg3e8AS"></path><path d="M18.41 31.4C18.34 31.4 18.28 31.38 18.24 31.35C17.9 31.27 17.73 31.06 17.73 30.72C17.73 27.98 17.73 6.02 17.73 3.28C17.73 2.82 17.96 2.6 18.41 2.6C18.6 2.6 18.76 2.67 18.87 2.82C19.02 2.97 19.1 3.13 19.1 3.28C19.1 4.93 19.1 13.19 19.1 28.06C21.65 23.46 23.07 20.91 23.35 20.4C23.39 20.25 23.52 20.14 23.75 20.06C23.93 20.02 24.12 20.06 24.31 20.18C24.74 20.46 28.19 22.73 28.62 23.01C29.61 21.01 30.08 19 30.04 17C30.04 14.62 29.44 12.41 28.23 10.37C27.05 8.29 25.43 6.68 23.35 5.55C22.97 5.36 22.88 5.05 23.07 4.64C23.22 4.3 23.52 4.2 23.97 4.35C26.28 5.64 28.09 7.42 29.42 9.68C30.74 11.92 31.4 14.35 31.4 17C31.48 19.53 30.83 21.97 29.47 24.32C29.44 24.47 29.28 24.58 29.02 24.66C28.87 24.69 28.7 24.66 28.51 24.54C28.22 24.35 26.79 23.41 24.2 21.71C21.1 27.32 19.38 30.44 19.04 31.06C18.81 31.29 18.6 31.4 18.41 31.4" id="e4RSakdSX"></path><path d="M15.58 31.4C15.39 31.4 15.22 31.33 15.07 31.18C14.96 31.03 14.9 30.87 14.9 30.72C14.9 29.08 14.9 20.86 14.9 6.06C12.52 10.55 11.19 13.04 10.93 13.54C10.89 13.69 10.74 13.81 10.48 13.88C10.32 13.92 10.15 13.88 9.96 13.77C9.52 13.46 5.98 11.01 5.54 10.71C4.45 12.6 3.9 14.69 3.9 17C3.93 19.38 4.52 21.57 5.65 23.58C6.79 25.54 8.38 27.11 10.42 28.28C10.83 28.55 10.91 28.85 10.65 29.19C10.46 29.57 10.15 29.66 9.74 29.48C7.51 28.15 5.75 26.39 4.46 24.2C3.22 22.01 2.59 19.61 2.59 17C2.59 14.2 3.31 11.65 4.75 9.34C4.86 9.16 5.01 9.06 5.2 9.06C5.39 8.99 5.56 9.02 5.71 9.17C6.01 9.38 7.48 10.4 10.14 12.24C13.06 6.69 14.69 3.61 15.01 2.99C15.2 2.69 15.47 2.58 15.81 2.65C16.15 2.73 16.32 2.94 16.32 3.28C16.32 6.02 16.32 27.98 16.32 30.72C16.24 31.18 16 31.4 15.58 31.4" id="c9ncRtHNo"></path></defs><g><g><g><use xlink:href="#a7Jg3e8AS" opacity="1" fill="#435472" fill-opacity="1"></use><g><use xlink:href="#a7Jg3e8AS" opacity="1" fill-opacity="0" stroke="#000000" stroke-width="0" stroke-opacity="1"></use></g></g><g><use xlink:href="#e4RSakdSX" opacity="1" fill="#ffffff" fill-opacity="1"></use><g><use xlink:href="#e4RSakdSX" opacity="1" fill-opacity="0" stroke="#435472" stroke-width="0" stroke-opacity="1"></use></g></g><g><use xlink:href="#c9ncRtHNo" opacity="1" fill="#ffffff" fill-opacity="1"></use><g><use xlink:href="#c9ncRtHNo" opacity="1" fill-opacity="0" stroke="#435472" stroke-width="0" stroke-opacity="1"></use></g></g></g></g></svg>