<?xml version="1.0" encoding="UTF-8" standalone="no"?>
<!DOCTYPE svg PUBLIC "-//W3C//DTD SVG 1.1//EN" "http://www.w3.org/Graphics/SVG/1.1/DTD/svg11.dtd">
<svg version="1.1" xmlns="http://www.w3.org/2000/svg" xmlns:xlink="http://www.w3.org/1999/xlink" preserveAspectRatio="xMidYMid meet" viewBox="0 0 34 34" width="34" height="34"><defs><path d="M34 17C34 26.39 26.39 34 17 34C7.61 34 0 26.39 0 17C0 7.61 7.61 0 17 0C26.39 0 34 7.61 34 17Z" id="a5zHb07Ma"></path><path d="M18.53 32.59C18.45 32.59 18.39 32.57 18.35 32.53C17.98 32.45 17.79 32.22 17.79 31.86C17.79 28.88 17.79 5.12 17.79 2.14C17.79 1.65 18.04 1.41 18.53 1.41C18.74 1.41 18.9 1.49 19.02 1.65C19.19 1.82 19.27 1.98 19.27 2.14C19.27 3.93 19.27 12.87 19.27 28.97C22.03 24 23.57 21.24 23.87 20.68C23.91 20.52 24.06 20.4 24.3 20.31C24.51 20.27 24.71 20.31 24.92 20.44C25.38 20.74 29.12 23.2 29.58 23.51C30.65 21.34 31.16 19.17 31.12 17C31.12 14.42 30.46 12.03 29.15 9.82C27.88 7.57 26.12 5.83 23.87 4.6C23.46 4.4 23.36 4.07 23.57 3.62C23.73 3.25 24.06 3.15 24.55 3.31C27.04 4.7 29.01 6.63 30.44 9.08C31.87 11.5 32.59 14.14 32.59 17C32.67 19.74 31.98 22.38 30.5 24.92C30.46 25.08 30.3 25.21 30.01 25.29C29.85 25.33 29.66 25.29 29.46 25.16C29.15 24.96 27.59 23.94 24.79 22.1C21.44 28.17 19.58 31.55 19.21 32.22C18.96 32.47 18.74 32.59 18.53 32.59" id="a97PEiTvF"></path><path d="M15.46 32.59C15.26 32.59 15.07 32.51 14.91 32.35C14.79 32.18 14.73 32.02 14.73 31.86C14.73 30.08 14.73 21.17 14.73 5.15C12.15 10.01 10.71 12.72 10.43 13.26C10.39 13.42 10.22 13.54 9.94 13.62C9.77 13.66 9.59 13.62 9.38 13.5C8.91 13.17 5.07 10.52 4.6 10.19C3.41 12.23 2.82 14.5 2.82 17C2.86 19.58 3.49 21.95 4.72 24.12C5.95 26.25 7.67 27.95 9.88 29.22C10.33 29.5 10.41 29.83 10.12 30.2C9.92 30.61 9.59 30.71 9.14 30.51C6.72 29.07 4.82 27.17 3.43 24.8C2.08 22.42 1.4 19.82 1.4 17C1.4 13.97 2.18 11.21 3.74 8.71C3.86 8.51 4.02 8.41 4.23 8.41C4.43 8.32 4.62 8.36 4.78 8.53C5.1 8.75 6.7 9.85 9.57 11.84C12.74 5.84 14.5 2.5 14.85 1.84C15.05 1.51 15.34 1.39 15.71 1.47C16.08 1.55 16.26 1.78 16.26 2.14C16.26 5.12 16.26 28.88 16.26 31.86C16.18 32.35 15.91 32.59 15.46 32.59" id="f55b5XJw7k"></path></defs><g><g><g><use xlink:href="#a5zHb07Ma" opacity="1" fill="#435472" fill-opacity="1"></use><g><use xlink:href="#a5zHb07Ma" opacity="1" fill-opacity="0" stroke="#000000" stroke-width="0" stroke-opacity="1"></use></g></g><g><use xlink:href="#a97PEiTvF" opacity="1" fill="#ffffff" fill-opacity="1"></use><g><use xlink:href="#a97PEiTvF" opacity="1" fill-opacity="0" stroke="#435472" stroke-width="0" stroke-opacity="1"></use></g></g><g><use xlink:href="#f55b5XJw7k" opacity="1" fill="#ffffff" fill-opacity="1"></use><g><use xlink:href="#f55b5XJw7k" opacity="1" fill-opacity="0" stroke="#435472" stroke-width="0" stroke-opacity="1"></use></g></g></g></g></svg>