<?xml version="1.0" encoding="UTF-8" standalone="no"?>
<!DOCTYPE svg PUBLIC "-//W3C//DTD SVG 1.1//EN" "http://www.w3.org/Graphics/SVG/1.1/DTD/svg11.dtd">
<svg version="1.1" xmlns="http://www.w3.org/2000/svg" xmlns:xlink="http://www.w3.org/1999/xlink" preserveAspectRatio="xMidYMid meet" viewBox="0 0 34 34" width="34" height="34"><defs><path d="M34 17C34 26.39 26.39 34 17 34C7.61 34 0 26.39 0 17C0 7.61 7.61 0 17 0C26.39 0 34 7.61 34 17Z" id="a5zHb07Ma"></path><path d="M18.47 31.99C18.39 31.99 18.34 31.97 18.3 31.93C17.94 31.86 17.76 31.64 17.76 31.29C17.76 28.43 17.76 5.57 17.76 2.71C17.76 2.24 18 2.01 18.47 2.01C18.67 2.01 18.83 2.08 18.95 2.24C19.1 2.4 19.18 2.56 19.18 2.71C19.18 4.43 19.18 13.03 19.18 28.51C21.84 23.73 23.31 21.07 23.61 20.54C23.65 20.38 23.79 20.27 24.02 20.19C24.22 20.15 24.42 20.19 24.61 20.31C25.06 20.6 28.65 22.96 29.1 23.26C30.12 21.17 30.61 19.09 30.58 17C30.58 14.52 29.95 12.22 28.69 10.09C27.47 7.93 25.77 6.26 23.61 5.08C23.22 4.88 23.12 4.56 23.31 4.13C23.47 3.78 23.79 3.68 24.26 3.84C26.66 5.17 28.55 7.02 29.93 9.39C31.3 11.71 31.99 14.25 31.99 17C32.07 19.64 31.4 22.18 29.98 24.61C29.95 24.77 29.79 24.89 29.51 24.97C29.36 25.01 29.18 24.97 28.98 24.85C28.68 24.65 27.19 23.67 24.49 21.9C21.27 27.74 19.48 30.99 19.12 31.64C18.89 31.88 18.67 31.99 18.47 31.99" id="b4yZLXylRB"></path><path d="M15.52 31.99C15.32 31.99 15.15 31.92 14.99 31.76C14.87 31.6 14.81 31.44 14.81 31.29C14.81 29.57 14.81 21.01 14.81 5.61C12.33 10.28 10.96 12.88 10.68 13.4C10.64 13.56 10.48 13.67 10.21 13.75C10.05 13.79 9.87 13.75 9.68 13.64C9.22 13.32 5.53 10.77 5.07 10.45C3.93 12.42 3.36 14.6 3.36 17C3.4 19.48 4.01 21.76 5.19 23.85C6.37 25.89 8.02 27.53 10.15 28.75C10.58 29.02 10.66 29.34 10.38 29.69C10.19 30.09 9.87 30.18 9.44 29.99C7.12 28.61 5.29 26.78 3.95 24.5C2.65 22.21 2 19.72 2 17C2 14.09 2.75 11.43 4.25 9.03C4.36 8.83 4.52 8.74 4.72 8.74C4.91 8.66 5.09 8.7 5.25 8.85C5.56 9.07 7.09 10.13 9.85 12.04C12.9 6.27 14.59 3.06 14.93 2.42C15.13 2.1 15.4 1.99 15.76 2.07C16.11 2.14 16.29 2.36 16.29 2.71C16.29 5.57 16.29 28.43 16.29 31.29C16.21 31.76 15.95 31.99 15.52 31.99" id="cJdXh2dFZ"></path></defs><g><g><g><use xlink:href="#a5zHb07Ma" opacity="1" fill="#435472" fill-opacity="1"></use><g><use xlink:href="#a5zHb07Ma" opacity="1" fill-opacity="0" stroke="#000000" stroke-width="0" stroke-opacity="1"></use></g></g><g><use xlink:href="#b4yZLXylRB" opacity="1" fill="#ffffff" fill-opacity="1"></use><g><use xlink:href="#b4yZLXylRB" opacity="1" fill-opacity="0" stroke="#435472" stroke-width="0" stroke-opacity="1"></use></g></g><g><use xlink:href="#cJdXh2dFZ" opacity="1" fill="#ffffff" fill-opacity="1"></use><g><use xlink:href="#cJdXh2dFZ" opacity="1" fill-opacity="0" stroke="#435472" stroke-width="0" stroke-opacity="1"></use></g></g></g></g></svg>