<?xml version="1.0" encoding="UTF-8" standalone="no"?>
<!DOCTYPE svg PUBLIC "-//W3C//DTD SVG 1.1//EN" "http://www.w3.org/Graphics/SVG/1.1/DTD/svg11.dtd">
<svg version="1.1" xmlns="http://www.w3.org/2000/svg" xmlns:xlink="http://www.w3.org/1999/xlink" preserveAspectRatio="xMidYMid meet" viewBox="0 0 34 34" width="34" height="34"><defs><path d="M-1.15 4.08C-1.15 13.44 -8.74 21.04 -18.1 21.04C-27.47 21.04 -35.06 13.44 -35.06 4.08C-35.06 -5.29 -27.47 -12.88 -18.1 -12.88C-8.74 -12.88 -1.15 -5.29 -1.15 4.08Z" id="eXQz8r77d"></path><path d="M18.67 34C18.58 34 18.51 33.98 18.47 33.93C18.07 33.84 17.87 33.6 17.87 33.2C17.87 29.96 17.87 4.05 17.87 0.81C17.87 0.28 18.13 0.01 18.67 0.01C18.89 0.01 19.07 0.1 19.2 0.28C19.38 0.46 19.47 0.63 19.47 0.81C19.47 2.76 19.47 12.51 19.47 30.05C22.48 24.63 24.16 21.62 24.49 21.02C24.54 20.84 24.69 20.71 24.96 20.62C25.18 20.57 25.41 20.62 25.63 20.75C26.14 21.09 30.21 23.76 30.71 24.1C31.87 21.73 32.43 19.37 32.39 17.01C32.39 14.19 31.67 11.59 30.25 9.18C28.86 6.72 26.94 4.83 24.49 3.49C24.04 3.27 23.93 2.91 24.16 2.42C24.33 2.02 24.69 1.91 25.23 2.08C27.95 3.6 30.09 5.7 31.65 8.37C33.21 11.01 33.99 13.88 33.99 17.01C34.08 19.99 33.32 22.87 31.72 25.64C31.67 25.81 31.49 25.95 31.18 26.04C31 26.08 30.8 26.04 30.58 25.9C30.24 25.68 28.55 24.57 25.49 22.56C21.84 29.18 19.81 32.86 19.41 33.6C19.14 33.87 18.89 34 18.67 34" id="ajHOV6lM7"></path><path d="M15.32 34C15.1 34 14.9 33.91 14.72 33.73C14.59 33.55 14.52 33.38 14.52 33.2C14.52 31.26 14.52 21.55 14.52 4.09C11.71 9.39 10.15 12.33 9.84 12.92C9.79 13.1 9.61 13.24 9.3 13.32C9.12 13.37 8.92 13.33 8.7 13.19C8.18 12.83 4 9.94 3.48 9.58C2.19 11.81 1.54 14.28 1.54 17.01C1.58 19.82 2.28 22.4 3.61 24.77C4.95 27.09 6.83 28.94 9.23 30.32C9.73 30.63 9.81 30.99 9.5 31.39C9.28 31.84 8.92 31.95 8.43 31.73C5.8 30.16 3.72 28.09 2.21 25.5C0.74 22.92 0 20.08 0 17.01C0 13.7 0.85 10.69 2.54 7.97C2.68 7.75 2.86 7.64 3.08 7.64C3.3 7.55 3.5 7.59 3.68 7.77C4.03 8.01 5.77 9.22 8.9 11.38C12.35 4.84 14.27 1.21 14.65 0.48C14.88 0.12 15.19 -0.01 15.59 0.08C15.99 0.17 16.19 0.41 16.19 0.81C16.19 4.05 16.19 29.96 16.19 33.2C16.1 33.73 15.81 34 15.32 34" id="bHmzATMhJ"></path></defs><g><g><g><use xlink:href="#eXQz8r77d" opacity="1" fill="#435472" fill-opacity="1"></use><g><use xlink:href="#eXQz8r77d" opacity="1" fill-opacity="0" stroke="#000000" stroke-width="0" stroke-opacity="1"></use></g></g><g><use xlink:href="#ajHOV6lM7" opacity="1" fill="#435472" fill-opacity="1"></use><g><use xlink:href="#ajHOV6lM7" opacity="1" fill-opacity="0" stroke="#435472" stroke-width="0" stroke-opacity="1"></use></g></g><g><use xlink:href="#bHmzATMhJ" opacity="1" fill="#435472" fill-opacity="1"></use><g><use xlink:href="#bHmzATMhJ" opacity="1" fill-opacity="0" stroke="#435472" stroke-width="0" stroke-opacity="1"></use></g></g></g></g></svg>