<svg
   xmlns:dc="http://purl.org/dc/elements/1.1/"
   xmlns:cc="http://creativecommons.org/ns#"
   xmlns:rdf="http://www.w3.org/1999/02/22-rdf-syntax-ns#"
   xmlns:svg="http://www.w3.org/2000/svg"
   xmlns="http://www.w3.org/2000/svg"
   xmlns:sodipodi="http://sodipodi.sourceforge.net/DTD/sodipodi-0.dtd"
   xmlns:inkscape="http://www.inkscape.org/namespaces/inkscape"
   version="1.1"
   width="34"
   height="34"
   id="svg2985"
   inkscape:version="0.48.4 r9939"
   sodipodi:docname="logo.svg">
  <g id="layer1">
    <g id="text2993">
      <path
         d="m 17.539325,31.931973 c -0.08368,0 -0.146429,-0.02092 -0.188244,-0.06275 -0.376503,-0.08366 -0.564747,-0.313738 -0.56473,-0.690225 l 0,-30.36992429 c -1.7e-5,-0.50195046 0.250974,-0.75294131 0.752974,-0.75297331 0.209141,3.2e-5 0.376468,0.08369561 0.501982,0.2509911 0.167309,0.16735899 0.250973,0.33468622 0.250991,0.50198221 l 0,27.42077829 4.706083,-8.47095 c 0.04181,-0.167315 0.18822,-0.29281 0.439235,-0.376486 0.209135,-0.04182 0.418294,1.2e-5 0.627477,0.125495 L 28.833924,22.6453 C 29.921522,20.428225 30.44442,18.21114 30.402619,15.994038 30.402588,13.35865 29.733279,10.911489 28.39469,8.6525478 27.097875,6.3518217 25.299108,4.5739698 22.998381,3.3189868 22.58004,3.1098565 22.47546,2.775202 22.684642,2.3150223 c 0.167305,-0.3764565 0.501959,-0.481036 1.003965,-0.3137388 2.551716,1.4223115 4.559643,3.3884066 6.023786,5.898291 1.464084,2.4681005 2.19614,5.1662525 2.196172,8.0944635 0.08363,2.802747 -0.627509,5.500899 -2.133424,8.094463 -0.04186,0.167335 -0.209189,0.29283 -0.501982,0.376486 -0.167357,0.04184 -0.3556,8e-6 -0.56473,-0.125495 L 23.939598,21.202103 18.22955,31.555486 c -0.251009,0.250992 -0.481084,0.376487 -0.690225,0.376487"
         id="path3082"
         fill="#435472"
         stroke-width="0.5"
         stroke="#435472"
         />
      <path
         id="path3865"
         d="m 14.401936,31.931973 c -0.209174,0 -0.397417,-0.08366 -0.56473,-0.250991 -0.12551,-0.167327 -0.188257,-0.334654 -0.188244,-0.501982 l 0,-27.2952832 -4.3923436,8.2827062 c -0.04184,0.167347 -0.209169,0.292843 -0.501983,0.376487 -0.167336,0.04185 -0.355579,1.9e-5 -0.56473,-0.125496 L 3.2955794,9.0290344 c -1.213126,2.0916136 -1.819687,4.4132786 -1.819686,6.9650036 0.04183,2.63542 0.690224,5.061665 1.945181,7.278742 1.254951,2.175263 3.011887,3.911283 5.270814,5.208065 0.460141,0.292826 0.543804,0.627481 0.250991,1.003965 -0.209168,0.41832 -0.543823,0.5229 -1.003965,0.313738 -2.468084,-1.464111 -4.413264,-3.40929 -5.835543,-5.835543 -1.38045196,-2.426237 -2.07067696,-5.082556 -2.07067596,-7.968967 -1e-6,-3.095538 0.794804,-5.919185 2.38441496,-8.4709502 0.125493,-0.2091345 0.29282,-0.313714 0.501982,-0.3137389 0.209156,-0.083639 0.397399,-0.041807 0.56473,0.1254956 L 8.3781494,10.723224 13.774458,0.49533683 c 0.209145,-0.33462291 0.501968,-0.46011834 0.878469,-0.37648666 0.376471,0.0836956 0.564715,0.31377051 0.56473,0.69022554 l 0,30.36992429 c -0.08368,0.501982 -0.355586,0.752973 -0.815721,0.752973"
         fill="#435472"
         stroke-width="0.5"
         stroke="#435472"
         />
    </g>
  </g>
</svg>
