<?xml version="1.0" encoding="UTF-8" standalone="no"?>
<!DOCTYPE svg PUBLIC "-//W3C//DTD SVG 1.1//EN" "http://www.w3.org/Graphics/SVG/1.1/DTD/svg11.dtd">
<svg version="1.1" xmlns="http://www.w3.org/2000/svg" xmlns:xlink="http://www.w3.org/1999/xlink" preserveAspectRatio="xMidYMid meet" viewBox="0 0 34 34" width="34" height="34"><defs><path d="M34 17C34 26.39 26.39 34 17 34C7.61 34 0 26.39 0 17C0 7.61 7.61 0 17 0C26.39 0 34 7.61 34 17Z" id="eHnoaTqMa"></path><path d="M18.5 32.27C18.42 32.27 18.36 32.25 18.32 32.21C17.96 32.13 17.78 31.91 17.78 31.55C17.78 28.64 17.78 5.36 17.78 2.45C17.78 1.97 18.02 1.73 18.5 1.73C18.7 1.73 18.86 1.81 18.98 1.97C19.14 2.13 19.22 2.29 19.22 2.45C19.22 4.2 19.22 12.96 19.22 28.72C21.93 23.85 23.43 21.15 23.73 20.61C23.77 20.45 23.91 20.33 24.15 20.25C24.35 20.21 24.55 20.25 24.75 20.37C25.21 20.67 28.87 23.07 29.32 23.37C30.36 21.25 30.87 19.12 30.83 17C30.83 14.47 30.18 12.13 28.9 9.97C27.66 7.76 25.94 6.06 23.73 4.85C23.33 4.65 23.23 4.33 23.43 3.89C23.59 3.53 23.91 3.43 24.39 3.59C26.84 4.96 28.76 6.84 30.16 9.24C31.57 11.61 32.27 14.19 32.27 17C32.35 19.69 31.67 22.27 30.22 24.76C30.18 24.92 30.02 25.04 29.74 25.12C29.58 25.16 29.4 25.12 29.2 25C28.9 24.8 27.37 23.79 24.63 21.99C21.35 27.94 19.53 31.25 19.16 31.91C18.92 32.15 18.7 32.27 18.5 32.27" id="a32rpYsueh"></path><path d="M15.49 32.27C15.29 32.27 15.11 32.19 14.95 32.03C14.83 31.87 14.77 31.71 14.77 31.55C14.77 29.81 14.77 21.09 14.77 5.4C12.25 10.16 10.84 12.8 10.56 13.33C10.52 13.49 10.36 13.61 10.08 13.69C9.92 13.73 9.74 13.69 9.54 13.57C9.07 13.25 5.32 10.65 4.85 10.33C3.69 12.33 3.11 14.55 3.11 17C3.15 19.53 3.77 21.85 4.97 23.97C6.17 26.06 7.86 27.72 10.02 28.96C10.46 29.25 10.54 29.57 10.26 29.93C10.06 30.33 9.74 30.43 9.3 30.23C6.94 28.82 5.07 26.96 3.71 24.64C2.39 22.31 1.73 19.77 1.73 17C1.73 14.03 2.49 11.33 4.01 8.88C4.13 8.68 4.29 8.58 4.49 8.58C4.69 8.5 4.87 8.54 5.03 8.7C5.34 8.92 6.91 10 9.72 11.95C12.82 6.07 14.55 2.8 14.89 2.15C15.09 1.83 15.37 1.71 15.73 1.79C16.09 1.87 16.28 2.09 16.28 2.45C16.28 5.36 16.28 28.64 16.28 31.55C16.2 32.03 15.93 32.27 15.49 32.27" id="c1b6r9mt8J"></path></defs><g><g><g><use xlink:href="#eHnoaTqMa" opacity="1" fill="#435472" fill-opacity="1"></use><g><use xlink:href="#eHnoaTqMa" opacity="1" fill-opacity="0" stroke="#000000" stroke-width="0" stroke-opacity="1"></use></g></g><g><use xlink:href="#a32rpYsueh" opacity="1" fill="#ffffff" fill-opacity="1"></use><g><use xlink:href="#a32rpYsueh" opacity="1" fill-opacity="0" stroke="#ffffff" stroke-width="0.5" stroke-opacity="1"></use></g></g><g><use xlink:href="#c1b6r9mt8J" opacity="1" fill="#ffffff" fill-opacity="1"></use><g><use xlink:href="#c1b6r9mt8J" opacity="1" fill-opacity="0" stroke="#ffffff" stroke-width="0.5" stroke-opacity="1"></use></g></g></g></g></svg>