<?xml version="1.0" encoding="UTF-8" standalone="no"?>
<!DOCTYPE svg PUBLIC "-//W3C//DTD SVG 1.1//EN" "http://www.w3.org/Graphics/SVG/1.1/DTD/svg11.dtd">
<svg version="1.1" xmlns="http://www.w3.org/2000/svg" xmlns:xlink="http://www.w3.org/1999/xlink" preserveAspectRatio="xMidYMid meet" viewBox="0 0 34 34" width="34" height="34"><defs><path d="M18.64 33.73C18.56 33.73 18.49 33.71 18.45 33.67C18.05 33.58 17.85 33.34 17.85 32.94C17.85 29.75 17.85 4.25 17.85 1.06C17.85 0.53 18.12 0.27 18.64 0.27C18.86 0.27 19.04 0.36 19.17 0.53C19.35 0.71 19.43 0.88 19.43 1.06C19.43 2.98 19.43 12.57 19.43 29.84C22.4 24.51 24.04 21.55 24.37 20.95C24.42 20.78 24.57 20.64 24.84 20.56C25.05 20.51 25.27 20.56 25.49 20.69C25.99 21.02 30 23.65 30.5 23.98C31.64 21.65 32.19 19.33 32.15 17C32.15 14.23 31.44 11.66 30.04 9.29C28.68 6.88 26.79 5.01 24.37 3.69C23.93 3.47 23.83 3.12 24.04 2.64C24.22 2.25 24.57 2.14 25.1 2.31C27.78 3.8 29.89 5.87 31.42 8.5C32.96 11.09 33.73 13.93 33.73 17C33.82 19.94 33.07 22.77 31.49 25.5C31.44 25.67 31.27 25.8 30.96 25.89C30.79 25.94 30.59 25.89 30.37 25.76C30.03 25.54 28.37 24.44 25.36 22.47C21.77 28.99 19.77 32.61 19.37 33.34C19.1 33.6 18.86 33.73 18.64 33.73" id="ftnsPhyad"></path><path d="M15.35 33.73C15.13 33.73 14.93 33.64 14.76 33.47C14.63 33.29 14.56 33.12 14.56 32.94C14.56 31.03 14.56 21.48 14.56 4.29C11.79 9.5 10.26 12.4 9.95 12.98C9.9 13.16 9.73 13.29 9.42 13.38C9.25 13.42 9.05 13.38 8.83 13.25C8.31 12.89 4.2 10.04 3.69 9.69C2.42 11.88 1.78 14.32 1.78 17C1.82 19.77 2.51 22.31 3.82 24.64C5.14 26.92 6.98 28.75 9.36 30.11C9.84 30.42 9.93 30.77 9.62 31.16C9.4 31.6 9.05 31.71 8.57 31.49C5.97 29.95 3.93 27.91 2.44 25.37C0.99 22.82 0.27 20.03 0.27 17C0.27 13.75 1.1 10.79 2.77 8.11C2.9 7.89 3.08 7.78 3.3 7.78C3.52 7.69 3.71 7.73 3.89 7.91C4.23 8.15 5.94 9.33 9.03 11.47C12.43 5.02 14.31 1.45 14.69 0.73C14.91 0.38 15.22 0.25 15.61 0.33C16.01 0.42 16.21 0.66 16.21 1.06C16.21 4.25 16.21 29.75 16.21 32.94C16.12 33.47 15.83 33.73 15.35 33.73" id="dWBZntpIy"></path></defs><g><g><g><use xlink:href="#ftnsPhyad" opacity="1" fill="#435472" fill-opacity="1"></use><g><use xlink:href="#ftnsPhyad" opacity="1" fill-opacity="0" stroke="#435472" stroke-width="0.5" stroke-opacity="1"></use></g></g><g><use xlink:href="#dWBZntpIy" opacity="1" fill="#435472" fill-opacity="1"></use><g><use xlink:href="#dWBZntpIy" opacity="1" fill-opacity="0" stroke="#435472" stroke-width="0.5" stroke-opacity="1"></use></g></g></g></g></svg>